<svg width="174" height="183" viewBox="0 0 174 183" fill="none" xmlns="http://www.w3.org/2000/svg">
<rect width="174" height="183" rx="87" fill="#131313"/>
<path d="M27.2266 68.9844H46.5234L57.9902 90.7305L68.8447 68.9844H86.6016V74.9219H80.6641V109.062H86.6016V115H62.8516V109.062H68.7891V82.2881L56.9141 106.094H53.2031L40.5859 82.1953V109.062H46.5234V115H27.2266V109.062H33.1641V74.9219H27.2266V68.9844ZM92.0381 113.646C90.8877 112.483 90.3125 111.079 90.3125 109.434C90.3125 107.788 90.8877 106.391 92.0381 105.24C93.2008 104.077 94.6048 103.496 96.25 103.496C97.8952 103.496 99.293 104.077 100.443 105.24C101.606 106.391 102.188 107.788 102.188 109.434C102.188 111.079 101.606 112.483 100.443 113.646C99.293 114.796 97.8952 115.371 96.25 115.371C94.6048 115.371 93.2008 114.796 92.0381 113.646ZM134.102 109.062V115H105.898V109.062H111.836V74.9219H105.898V68.9844H145.977V83.8281H139.297V80.8594C139.297 80.2533 139.241 79.6286 139.13 78.9854C139.031 78.3421 138.87 77.7051 138.647 77.0742C138.437 76.4434 138.128 75.93 137.72 75.5342C137.312 75.126 136.848 74.9219 136.328 74.9219H123.711V91.25H130.391V84.5703H136.328V103.867H130.391V97.1875H123.711V109.062H134.102Z" fill="#FFD600"/>
</svg>
